<?xml version="1.0" encoding="UTF-8" standalone="no"?><!DOCTYPE svg PUBLIC "-//W3C//DTD SVG 1.1//EN" "http://www.w3.org/Graphics/SVG/1.1/DTD/svg11.dtd"><svg width="100%" height="100%" viewBox="0 0 64 64" version="1.1" xmlns="http://www.w3.org/2000/svg" xmlns:xlink="http://www.w3.org/1999/xlink" xml:space="preserve" xmlns:serif="http://www.serif.com/" style="fill-rule:evenodd;clip-rule:evenodd;stroke-linejoin:round;stroke-miterlimit:2;"><path d="M64,5.434c0,-2.999 -2.435,-5.434 -5.434,-5.434l-53.132,0c-2.999,0 -5.434,2.435 -5.434,5.434l-0,53.132c-0,2.999 2.435,5.434 5.434,5.434l53.132,0c2.999,0 5.434,-2.435 5.434,-5.434l0,-53.132Z" style="fill:#2e85d2;"/><path d="M56,8l-48,0l0,48l48,0l0,-48Zm-21.333,3.556l-23.111,-0l-0,17.777l12.444,0l0,23.111l28.444,0l0,-23.111l-17.777,0l-0,-17.777Zm-14.223,21.333l-8.888,-0l-0,19.555l8.888,0l0,-19.555Zm32,-21.333l-14.222,-0l0,14.222l14.222,-0l0,-14.222Z" style="fill:#fff;"/></svg>